ISO-10303-21;
HEADER;
/* Generated by software containing ST-Developer
 * from STEP Tools, Inc. (www.steptools.com) 
 */
/* OPTION: using custom schema-name function */

FILE_DESCRIPTION(
/* description */ (''),
/* implementation_level */ '2;1');

FILE_NAME(
/* name */ 'ROLE BAGLANTI PARCA_AA.stp',
/* time_stamp */ '2026-07-21T08:14:40+03:00',
/* author */ (''),
/* organization */ (''),
/* preprocessor_version */ 'ST-DEVELOPER v20',
/* originating_system */ 'SIEMENS PLM Software NX2412.8701',
/* authorisation */ '');

FILE_SCHEMA (('AUTOMOTIVE_DESIGN { 1 0 10303 214 3 1 1 1 }'));
ENDSEC;

DATA;
#10=PROPERTY_DEFINITION_REPRESENTATION(#14,#12);
#11=PROPERTY_DEFINITION_REPRESENTATION(#15,#13);
#12=REPRESENTATION('',(#16),#1055);
#13=REPRESENTATION('',(#17),#1055);
#14=PROPERTY_DEFINITION('pmi validation property','',#21);
#15=PROPERTY_DEFINITION('pmi validation property','',#21);
#16=VALUE_REPRESENTATION_ITEM('number of annotations',COUNT_MEASURE(0.));
#17=VALUE_REPRESENTATION_ITEM('number of views',COUNT_MEASURE(0.));
#18=SHAPE_REPRESENTATION_RELATIONSHIP('None',
'relationship between ROLE BAGLANTI PARCA_objects-None and ROLE BAGLAN
TI PARCA_objects-None',#30,#19);
#19=ADVANCED_BREP_SHAPE_REPRESENTATION(
'ROLE BAGLANTI PARCA_objects-None',(#48),#1055);
#20=SHAPE_DEFINITION_REPRESENTATION(#21,#30);
#21=PRODUCT_DEFINITION_SHAPE('','',#22);
#22=PRODUCT_DEFINITION(' ','',#24,#23);
#23=PRODUCT_DEFINITION_CONTEXT('part definition',#29,'design');
#24=PRODUCT_DEFINITION_FORMATION_WITH_SPECIFIED_SOURCE(' ',' ',#26,
 .NOT_KNOWN.);
#25=PRODUCT_RELATED_PRODUCT_CATEGORY('part','',(#26));
#26=PRODUCT('ROLE BAGLANTI PARCA_objects','ROLE BAGLANTI PARCA_objects',
' ',(#27));
#27=PRODUCT_CONTEXT(' ',#29,'mechanical');
#28=APPLICATION_PROTOCOL_DEFINITION('international standard',
'automotive_design',2010,#29);
#29=APPLICATION_CONTEXT(
'core data for automotive mechanical design processes');
#30=SHAPE_REPRESENTATION('ROLE BAGLANTI PARCA_objects-None',(#494),#1055);
#31=OVER_RIDING_STYLED_ITEM('',(#36),#118,#34);
#32=DRAUGHTING_PRE_DEFINED_COLOUR('red');
#33=PRESENTATION_LAYER_ASSIGNMENT('1','Layer 1',(#48));
#34=STYLED_ITEM('',(#35),#48);
#35=PRESENTATION_STYLE_ASSIGNMENT((#37));
#36=PRESENTATION_STYLE_ASSIGNMENT((#38));
#37=SURFACE_STYLE_USAGE(.BOTH.,#39);
#38=SURFACE_STYLE_USAGE(.BOTH.,#40);
#39=SURFACE_SIDE_STYLE('',(#41));
#40=SURFACE_SIDE_STYLE('',(#42));
#41=SURFACE_STYLE_FILL_AREA(#43);
#42=SURFACE_STYLE_FILL_AREA(#44);
#43=FILL_AREA_STYLE('',(#45));
#44=FILL_AREA_STYLE('',(#46));
#45=FILL_AREA_STYLE_COLOUR('',#47);
#46=FILL_AREA_STYLE_COLOUR('',#32);
#47=COLOUR_RGB('medium steel',0.611764705882353,0.658823529411765,0.670588235294118);
#48=MANIFOLD_SOLID_BREP('',#49);
#49=CLOSED_SHELL('',(#115,#116,#117,#118,#119,#120,#121,#122,#123,#124,
#125,#126,#127,#128,#129,#130,#131,#132,#133,#134,#135,#136,#137,#138,#139,
#140));
#50=CYLINDRICAL_SURFACE('',#520,2.1);
#51=CYLINDRICAL_SURFACE('',#523,2.1);
#52=CYLINDRICAL_SURFACE('',#529,7.);
#53=CYLINDRICAL_SURFACE('',#530,7.);
#54=CYLINDRICAL_SURFACE('',#531,7.);
#55=CYLINDRICAL_SURFACE('',#532,7.);
#56=CYLINDRICAL_SURFACE('',#533,7.);
#57=CYLINDRICAL_SURFACE('',#534,7.);
#58=CYLINDRICAL_SURFACE('',#535,7.);
#59=CYLINDRICAL_SURFACE('',#536,7.);
#60=CYLINDRICAL_SURFACE('',#538,1.575);
#61=CYLINDRICAL_SURFACE('',#541,1.575);
#62=CONICAL_SURFACE('',#504,79.3000000000228,2.29000317798691);
#63=CONICAL_SURFACE('',#521,0.,45.);
#64=CONICAL_SURFACE('',#524,0.,45.);
#65=CONICAL_SURFACE('',#539,0.,45.);
#66=CONICAL_SURFACE('',#542,0.,45.);
#67=ELLIPSE('',#500,103.720179573094,73.2825769832561);
#68=ELLIPSE('',#501,103.728064082,73.2881477134001);
#69=ELLIPSE('',#502,100.26488813019,70.8412713259925);
#70=ELLIPSE('',#503,100.272772639096,70.8468420561365);
#71=ELLIPSE('',#505,1.6005751618568,1.575);
#72=ELLIPSE('',#506,1.6005751618568,1.575);
#73=FACE_BOUND('',#169,.T.);
#74=FACE_BOUND('',#170,.T.);
#75=FACE_BOUND('',#171,.T.);
#76=FACE_BOUND('',#172,.T.);
#77=FACE_BOUND('',#173,.T.);
#78=FACE_BOUND('',#174,.T.);
#79=FACE_BOUND('',#175,.T.);
#80=FACE_BOUND('',#176,.T.);
#81=FACE_BOUND('',#177,.T.);
#82=FACE_BOUND('',#178,.T.);
#83=FACE_BOUND('',#180,.T.);
#84=FACE_BOUND('',#181,.T.);
#85=FACE_BOUND('',#182,.T.);
#86=FACE_BOUND('',#183,.T.);
#87=FACE_BOUND('',#184,.T.);
#88=FACE_BOUND('',#185,.T.);
#89=FACE_BOUND('',#186,.T.);
#90=FACE_BOUND('',#187,.T.);
#91=FACE_BOUND('',#200,.T.);
#92=FACE_BOUND('',#201,.T.);
#93=FACE_BOUND('',#202,.T.);
#94=FACE_BOUND('',#203,.T.);
#95=FACE_BOUND('',#204,.T.);
#96=FACE_BOUND('',#205,.T.);
#97=FACE_BOUND('',#206,.T.);
#98=FACE_BOUND('',#207,.T.);
#99=CIRCLE('',#496,73.1067735338954);
#100=CIRCLE('',#498,70.9073570139711);
#101=CIRCLE('',#507,2.64999999999998);
#102=CIRCLE('',#508,2.64999999999998);
#103=CIRCLE('',#509,7.);
#104=CIRCLE('',#510,7.);
#105=CIRCLE('',#511,7.);
#106=CIRCLE('',#512,7.);
#107=CIRCLE('',#513,7.);
#108=CIRCLE('',#514,7.);
#109=CIRCLE('',#515,7.);
#110=CIRCLE('',#516,7.);
#111=CIRCLE('',#519,2.1);
#112=CIRCLE('',#522,2.1);
#113=CIRCLE('',#537,1.575);
#114=CIRCLE('',#540,1.575);
#115=ADVANCED_FACE('',(#150),#141,.F.);
#116=ADVANCED_FACE('',(#151),#142,.F.);
#117=ADVANCED_FACE('',(#152),#143,.T.);
#118=ADVANCED_FACE('',(#73,#74,#75,#76,#77),#62,.T.);
#119=ADVANCED_FACE('',(#78,#79,#80,#81,#82),#144,.F.);
#120=ADVANCED_FACE('',(#153),#145,.F.);
#121=ADVANCED_FACE('',(#83,#84),#50,.F.);
#122=ADVANCED_FACE('',(#85,#86),#63,.F.);
#123=ADVANCED_FACE('',(#87,#88),#51,.F.);
#124=ADVANCED_FACE('',(#89,#90),#64,.F.);
#125=ADVANCED_FACE('',(#154),#146,.T.);
#126=ADVANCED_FACE('',(#155),#147,.T.);
#127=ADVANCED_FACE('',(#156),#148,.F.);
#128=ADVANCED_FACE('',(#157),#149,.F.);
#129=ADVANCED_FACE('',(#158),#52,.T.);
#130=ADVANCED_FACE('',(#159),#53,.T.);
#131=ADVANCED_FACE('',(#160),#54,.T.);
#132=ADVANCED_FACE('',(#161),#55,.T.);
#133=ADVANCED_FACE('',(#162),#56,.T.);
#134=ADVANCED_FACE('',(#163),#57,.T.);
#135=ADVANCED_FACE('',(#164),#58,.T.);
#136=ADVANCED_FACE('',(#165),#59,.T.);
#137=ADVANCED_FACE('',(#91,#92),#60,.F.);
#138=ADVANCED_FACE('',(#93,#94),#65,.F.);
#139=ADVANCED_FACE('',(#95,#96),#61,.F.);
#140=ADVANCED_FACE('',(#97,#98),#66,.F.);
#141=PLANE('',#495);
#142=PLANE('',#497);
#143=PLANE('',#499);
#144=PLANE('',#517);
#145=PLANE('',#518);
#146=PLANE('',#525);
#147=PLANE('',#526);
#148=PLANE('',#527);
#149=PLANE('',#528);
#150=FACE_OUTER_BOUND('',#166,.T.);
#151=FACE_OUTER_BOUND('',#167,.T.);
#152=FACE_OUTER_BOUND('',#168,.T.);
#153=FACE_OUTER_BOUND('',#179,.T.);
#154=FACE_OUTER_BOUND('',#188,.T.);
#155=FACE_OUTER_BOUND('',#189,.T.);
#156=FACE_OUTER_BOUND('',#190,.T.);
#157=FACE_OUTER_BOUND('',#191,.T.);
#158=FACE_OUTER_BOUND('',#192,.T.);
#159=FACE_OUTER_BOUND('',#193,.T.);
#160=FACE_OUTER_BOUND('',#194,.T.);
#161=FACE_OUTER_BOUND('',#195,.T.);
#162=FACE_OUTER_BOUND('',#196,.T.);
#163=FACE_OUTER_BOUND('',#197,.T.);
#164=FACE_OUTER_BOUND('',#198,.T.);
#165=FACE_OUTER_BOUND('',#199,.T.);
#166=EDGE_LOOP('',(#222,#223,#224,#225));
#167=EDGE_LOOP('',(#226,#227,#228,#229));
#168=EDGE_LOOP('',(#230,#231,#232,#233));
#169=EDGE_LOOP('',(#234));
#170=EDGE_LOOP('',(#235));
#171=EDGE_LOOP('',(#236));
#172=EDGE_LOOP('',(#237));
#173=EDGE_LOOP('',(#238,#239,#240,#241,#242,#243,#244,#245,#246,#247,#248,
#249,#250,#251,#252,#253));
#174=EDGE_LOOP('',(#254));
#175=EDGE_LOOP('',(#255));
#176=EDGE_LOOP('',(#256));
#177=EDGE_LOOP('',(#257));
#178=EDGE_LOOP('',(#258,#259,#260,#261,#262,#263,#264,#265,#266,#267,#268,
#269,#270,#271,#272,#273));
#179=EDGE_LOOP('',(#274,#275,#276,#277));
#180=EDGE_LOOP('',(#278));
#181=EDGE_LOOP('',(#279));
#182=EDGE_LOOP('',(#280));
#183=EDGE_LOOP('',(#281));
#184=EDGE_LOOP('',(#282));
#185=EDGE_LOOP('',(#283));
#186=EDGE_LOOP('',(#284));
#187=EDGE_LOOP('',(#285));
#188=EDGE_LOOP('',(#286,#287,#288,#289));
#189=EDGE_LOOP('',(#290,#291,#292,#293));
#190=EDGE_LOOP('',(#294,#295,#296,#297));
#191=EDGE_LOOP('',(#298,#299,#300,#301));
#192=EDGE_LOOP('',(#302,#303,#304,#305));
#193=EDGE_LOOP('',(#306,#307,#308,#309));
#194=EDGE_LOOP('',(#310,#311,#312,#313));
#195=EDGE_LOOP('',(#314,#315,#316,#317));
#196=EDGE_LOOP('',(#318,#319,#320,#321));
#197=EDGE_LOOP('',(#322,#323,#324,#325));
#198=EDGE_LOOP('',(#326,#327,#328,#329));
#199=EDGE_LOOP('',(#330,#331,#332,#333));
#200=EDGE_LOOP('',(#334));
#201=EDGE_LOOP('',(#335));
#202=EDGE_LOOP('',(#336));
#203=EDGE_LOOP('',(#337));
#204=EDGE_LOOP('',(#338));
#205=EDGE_LOOP('',(#339));
#206=EDGE_LOOP('',(#340));
#207=EDGE_LOOP('',(#341));
#208=B_SPLINE_CURVE_WITH_KNOTS('',3,(#671,#672,#673,#674),.UNSPECIFIED.,
 .F.,.F.,(4,4),(0.,1.),.UNSPECIFIED.);
#209=B_SPLINE_CURVE_WITH_KNOTS('',3,(#696,#697,#698,#699,#700,#701,#702,
#703,#704,#705,#706,#707,#708,#709,#710,#711,#712,#713,#714,#715,#716,#717,
#718,#719,#720,#721,#722,#723,#724,#725,#726,#727,#728,#729,#730,#731,#732,
#733,#734,#735,#736,#737,#738,#739,#740,#741,#742,#743,#744,#745,#746,#747,
#748,#749,#750,#751,#752,#753),.UNSPECIFIED.,.T.,.F.,(1,3,3,3,3,3,3,3,3,
3,3,3,3,3,3,3,3,3,3,3,3,1),(-0.0406509099408766,0.,0.0472883088511014,0.100543584781573,
0.153272560334756,0.205872692242681,0.258843093230628,0.312496357256368,
0.36683559388162,0.421582021686808,0.47629938136062,0.530553292974424,0.584085799995446,
0.636957215880895,0.689543617019302,0.742352914526796,0.795774838423439,
0.849914120548836,0.904572623528362,0.959349090059123,1.,1.0472883088511),
 .UNSPECIFIED.);
#210=B_SPLINE_CURVE_WITH_KNOTS('',3,(#755,#756,#757,#758,#759,#760,#761,
#762,#763,#764,#765,#766,#767,#768,#769,#770,#771,#772,#773,#774,#775,#776,
#777,#778,#779,#780,#781,#782,#783,#784,#785,#786,#787,#788,#789,#790,#791,
#792,#793,#794,#795,#796,#797,#798,#799,#800,#801,#802,#803,#804,#805,#806,
#807,#808,#809,#810,#811,#812),.UNSPECIFIED.,.T.,.F.,(1,3,3,3,3,3,3,3,3,
3,3,3,3,3,3,3,3,3,3,3,3,1),(-0.0384780962867115,0.,0.0472717245571071,0.1011146959934,
0.155564502405884,0.210341506215364,0.26499616711936,0.319115456612418,
0.37249716743761,0.425271915942599,0.477861719061767,0.530769910122005,
0.584337584469521,0.638605052274137,0.693322648662163,0.748065595607639,
0.802389671800158,0.856005878854228,0.908933804992502,0.961521903713288,
1.,1.04727172455711),.UNSPECIFIED.);
#211=B_SPLINE_CURVE_WITH_KNOTS('',3,(#814,#815,#816,#817,#818,#819,#820,
#821,#822,#823,#824,#825,#826,#827,#828,#829,#830,#831,#832,#833,#834,#835,
#836,#837,#838,#839,#840,#841,#842,#843,#844,#845,#846,#847,#848,#849,#850,
#851,#852,#853,#854,#855,#856,#857,#858,#859,#860,#861,#862,#863,#864,#865,
#866,#867,#868,#869,#870,#871),.UNSPECIFIED.,.T.,.F.,(1,3,3,3,3,3,3,3,3,
3,3,3,3,3,3,3,3,3,3,3,3,1),(-0.0335012345859539,0.,0.0536690189742196,0.107337908598248,
0.161008787271,0.214684434445721,0.268361046995406,0.322035048977712,0.375706489712903,
0.429391968390495,0.483123246446319,0.536909092330561,0.590697994489474,
0.644406358646507,0.698004094090389,0.751560327897312,0.805184298177807,
0.858922059564463,0.91272193292156,0.966498765414046,1.,1.05366901897422),
 .UNSPECIFIED.);
#212=B_SPLINE_CURVE_WITH_KNOTS('',3,(#873,#874,#875,#876,#877,#878,#879,
#880,#881,#882,#883,#884,#885,#886,#887,#888,#889,#890,#891,#892,#893,#894,
#895,#896,#897,#898,#899,#900,#901,#902,#903,#904,#905,#906,#907,#908,#909,
#910,#911,#912,#913,#914,#915,#916,#917,#918,#919,#920,#921,#922,#923,#924,
#925,#926,#927,#928,#929,#930),.UNSPECIFIED.,.T.,.F.,(1,3,3,3,3,3,3,3,3,
3,3,3,3,3,3,3,3,3,3,3,3,1),(-0.033460734027067,0.,0.0536760663785592,0.107352269139313,
0.161026021782995,0.214696737495855,0.268382198590049,0.32211548478147,
0.375903911832063,0.429691883337013,0.483394013013008,0.536984459217691,
0.590539019373634,0.644168580923346,0.69791371085813,0.751715981865546,
0.805489120631373,0.859199608268454,0.912871922365966,0.966539265972933,
1.,1.05367606637856),.UNSPECIFIED.);
#213=B_SPLINE_CURVE_WITH_KNOTS('',3,(#935,#936,#937,#938),.UNSPECIFIED.,
 .F.,.F.,(4,4),(0.,1.),.UNSPECIFIED.);
#214=B_SPLINE_CURVE_WITH_KNOTS('',3,(#939,#940,#941,#942),.UNSPECIFIED.,
 .F.,.F.,(4,4),(0.,1.),.UNSPECIFIED.);
#215=B_SPLINE_CURVE_WITH_KNOTS('',3,(#946,#947,#948,#949),.UNSPECIFIED.,
 .F.,.F.,(4,4),(0.,1.),.UNSPECIFIED.);
#216=B_SPLINE_CURVE_WITH_KNOTS('',3,(#951,#952,#953,#954),.UNSPECIFIED.,
 .F.,.F.,(4,4),(0.,1.),.UNSPECIFIED.);
#217=B_SPLINE_CURVE_WITH_KNOTS('',3,(#956,#957,#958,#959),.UNSPECIFIED.,
 .F.,.F.,(4,4),(0.,1.),.UNSPECIFIED.);
#218=B_SPLINE_CURVE_WITH_KNOTS('',3,(#963,#964,#965,#966),.UNSPECIFIED.,
 .F.,.F.,(4,4),(0.,1.),.UNSPECIFIED.);
#219=B_SPLINE_CURVE_WITH_KNOTS('',3,(#967,#968,#969,#970),.UNSPECIFIED.,
 .F.,.F.,(4,4),(0.,1.),.UNSPECIFIED.);
#220=B_SPLINE_CURVE_WITH_KNOTS('',3,(#974,#975,#976,#977),.UNSPECIFIED.,
 .F.,.F.,(4,4),(0.,1.),.UNSPECIFIED.);
#221=B_SPLINE_CURVE_WITH_KNOTS('',3,(#978,#979,#980,#981),.UNSPECIFIED.,
 .F.,.F.,(4,4),(0.,1.),.UNSPECIFIED.);
#222=ORIENTED_EDGE('',*,*,#386,.T.);
#223=ORIENTED_EDGE('',*,*,#387,.T.);
#224=ORIENTED_EDGE('',*,*,#388,.F.);
#225=ORIENTED_EDGE('',*,*,#389,.T.);
#226=ORIENTED_EDGE('',*,*,#390,.F.);
#227=ORIENTED_EDGE('',*,*,#391,.T.);
#228=ORIENTED_EDGE('',*,*,#392,.F.);
#229=ORIENTED_EDGE('',*,*,#393,.T.);
#230=ORIENTED_EDGE('',*,*,#394,.T.);
#231=ORIENTED_EDGE('',*,*,#395,.T.);
#232=ORIENTED_EDGE('',*,*,#396,.F.);
#233=ORIENTED_EDGE('',*,*,#397,.T.);
#234=ORIENTED_EDGE('',*,*,#398,.F.);
#235=ORIENTED_EDGE('',*,*,#399,.F.);
#236=ORIENTED_EDGE('',*,*,#400,.F.);
#237=ORIENTED_EDGE('',*,*,#401,.F.);
#238=ORIENTED_EDGE('',*,*,#402,.T.);
#239=ORIENTED_EDGE('',*,*,#403,.T.);
#240=ORIENTED_EDGE('',*,*,#390,.T.);
#241=ORIENTED_EDGE('',*,*,#404,.T.);
#242=ORIENTED_EDGE('',*,*,#405,.T.);
#243=ORIENTED_EDGE('',*,*,#406,.T.);
#244=ORIENTED_EDGE('',*,*,#407,.T.);
#245=ORIENTED_EDGE('',*,*,#408,.T.);
#246=ORIENTED_EDGE('',*,*,#409,.T.);
#247=ORIENTED_EDGE('',*,*,#410,.T.);
#248=ORIENTED_EDGE('',*,*,#394,.F.);
#249=ORIENTED_EDGE('',*,*,#411,.T.);
#250=ORIENTED_EDGE('',*,*,#412,.T.);
#251=ORIENTED_EDGE('',*,*,#413,.T.);
#252=ORIENTED_EDGE('',*,*,#388,.T.);
#253=ORIENTED_EDGE('',*,*,#414,.T.);
#254=ORIENTED_EDGE('',*,*,#415,.T.);
#255=ORIENTED_EDGE('',*,*,#416,.T.);
#256=ORIENTED_EDGE('',*,*,#417,.T.);
#257=ORIENTED_EDGE('',*,*,#418,.T.);
#258=ORIENTED_EDGE('',*,*,#392,.T.);
#259=ORIENTED_EDGE('',*,*,#419,.T.);
#260=ORIENTED_EDGE('',*,*,#420,.T.);
#261=ORIENTED_EDGE('',*,*,#421,.T.);
#262=ORIENTED_EDGE('',*,*,#386,.F.);
#263=ORIENTED_EDGE('',*,*,#422,.T.);
#264=ORIENTED_EDGE('',*,*,#423,.T.);
#265=ORIENTED_EDGE('',*,*,#424,.T.);
#266=ORIENTED_EDGE('',*,*,#396,.T.);
#267=ORIENTED_EDGE('',*,*,#425,.T.);
#268=ORIENTED_EDGE('',*,*,#426,.T.);
#269=ORIENTED_EDGE('',*,*,#427,.T.);
#270=ORIENTED_EDGE('',*,*,#428,.F.);
#271=ORIENTED_EDGE('',*,*,#429,.T.);
#272=ORIENTED_EDGE('',*,*,#430,.T.);
#273=ORIENTED_EDGE('',*,*,#431,.T.);
#274=ORIENTED_EDGE('',*,*,#407,.F.);
#275=ORIENTED_EDGE('',*,*,#432,.T.);
#276=ORIENTED_EDGE('',*,*,#428,.T.);
#277=ORIENTED_EDGE('',*,*,#433,.T.);
#278=ORIENTED_EDGE('',*,*,#434,.T.);
#279=ORIENTED_EDGE('',*,*,#401,.T.);
#280=ORIENTED_EDGE('',*,*,#434,.F.);
#281=ORIENTED_EDGE('',*,*,#418,.F.);
#282=ORIENTED_EDGE('',*,*,#435,.T.);
#283=ORIENTED_EDGE('',*,*,#400,.T.);
#284=ORIENTED_EDGE('',*,*,#435,.F.);
#285=ORIENTED_EDGE('',*,*,#417,.F.);
#286=ORIENTED_EDGE('',*,*,#412,.F.);
#287=ORIENTED_EDGE('',*,*,#436,.T.);
#288=ORIENTED_EDGE('',*,*,#423,.F.);
#289=ORIENTED_EDGE('',*,*,#437,.T.);
#290=ORIENTED_EDGE('',*,*,#409,.F.);
#291=ORIENTED_EDGE('',*,*,#438,.T.);
#292=ORIENTED_EDGE('',*,*,#426,.F.);
#293=ORIENTED_EDGE('',*,*,#439,.T.);
#294=ORIENTED_EDGE('',*,*,#405,.F.);
#295=ORIENTED_EDGE('',*,*,#440,.T.);
#296=ORIENTED_EDGE('',*,*,#430,.F.);
#297=ORIENTED_EDGE('',*,*,#441,.T.);
#298=ORIENTED_EDGE('',*,*,#420,.F.);
#299=ORIENTED_EDGE('',*,*,#442,.T.);
#300=ORIENTED_EDGE('',*,*,#402,.F.);
#301=ORIENTED_EDGE('',*,*,#443,.T.);
#302=ORIENTED_EDGE('',*,*,#403,.F.);
#303=ORIENTED_EDGE('',*,*,#442,.F.);
#304=ORIENTED_EDGE('',*,*,#419,.F.);
#305=ORIENTED_EDGE('',*,*,#391,.F.);
#306=ORIENTED_EDGE('',*,*,#431,.F.);
#307=ORIENTED_EDGE('',*,*,#440,.F.);
#308=ORIENTED_EDGE('',*,*,#404,.F.);
#309=ORIENTED_EDGE('',*,*,#393,.F.);
#310=ORIENTED_EDGE('',*,*,#406,.F.);
#311=ORIENTED_EDGE('',*,*,#441,.F.);
#312=ORIENTED_EDGE('',*,*,#429,.F.);
#313=ORIENTED_EDGE('',*,*,#432,.F.);
#314=ORIENTED_EDGE('',*,*,#427,.F.);
#315=ORIENTED_EDGE('',*,*,#438,.F.);
#316=ORIENTED_EDGE('',*,*,#408,.F.);
#317=ORIENTED_EDGE('',*,*,#433,.F.);
#318=ORIENTED_EDGE('',*,*,#410,.F.);
#319=ORIENTED_EDGE('',*,*,#439,.F.);
#320=ORIENTED_EDGE('',*,*,#425,.F.);
#321=ORIENTED_EDGE('',*,*,#395,.F.);
#322=ORIENTED_EDGE('',*,*,#424,.F.);
#323=ORIENTED_EDGE('',*,*,#436,.F.);
#324=ORIENTED_EDGE('',*,*,#411,.F.);
#325=ORIENTED_EDGE('',*,*,#397,.F.);
#326=ORIENTED_EDGE('',*,*,#421,.F.);
#327=ORIENTED_EDGE('',*,*,#443,.F.);
#328=ORIENTED_EDGE('',*,*,#414,.F.);
#329=ORIENTED_EDGE('',*,*,#387,.F.);
#330=ORIENTED_EDGE('',*,*,#413,.F.);
#331=ORIENTED_EDGE('',*,*,#437,.F.);
#332=ORIENTED_EDGE('',*,*,#422,.F.);
#333=ORIENTED_EDGE('',*,*,#389,.F.);
#334=ORIENTED_EDGE('',*,*,#444,.T.);
#335=ORIENTED_EDGE('',*,*,#416,.F.);
#336=ORIENTED_EDGE('',*,*,#399,.T.);
#337=ORIENTED_EDGE('',*,*,#444,.F.);
#338=ORIENTED_EDGE('',*,*,#445,.T.);
#339=ORIENTED_EDGE('',*,*,#415,.F.);
#340=ORIENTED_EDGE('',*,*,#398,.T.);
#341=ORIENTED_EDGE('',*,*,#445,.F.);
#342=VERTEX_POINT('',#667);
#343=VERTEX_POINT('',#668);
#344=VERTEX_POINT('',#670);
#345=VERTEX_POINT('',#675);
#346=VERTEX_POINT('',#679);
#347=VERTEX_POINT('',#680);
#348=VERTEX_POINT('',#682);
#349=VERTEX_POINT('',#684);
#350=VERTEX_POINT('',#688);
#351=VERTEX_POINT('',#689);
#352=VERTEX_POINT('',#691);
#353=VERTEX_POINT('',#693);
#354=VERTEX_POINT('',#754);
#355=VERTEX_POINT('',#813);
#356=VERTEX_POINT('',#872);
#357=VERTEX_POINT('',#931);
#358=VERTEX_POINT('',#933);
#359=VERTEX_POINT('',#934);
#360=VERTEX_POINT('',#943);
#361=VERTEX_POINT('',#945);
#362=VERTEX_POINT('',#950);
#363=VERTEX_POINT('',#955);
#364=VERTEX_POINT('',#960);
#365=VERTEX_POINT('',#962);
#366=VERTEX_POINT('',#971);
#367=VERTEX_POINT('',#973);
#368=VERTEX_POINT('',#984);
#369=VERTEX_POINT('',#986);
#370=VERTEX_POINT('',#988);
#371=VERTEX_POINT('',#990);
#372=VERTEX_POINT('',#992);
#373=VERTEX_POINT('',#994);
#374=VERTEX_POINT('',#997);
#375=VERTEX_POINT('',#999);
#376=VERTEX_POINT('',#1002);
#377=VERTEX_POINT('',#1004);
#378=VERTEX_POINT('',#1006);
#379=VERTEX_POINT('',#1008);
#380=VERTEX_POINT('',#1010);
#381=VERTEX_POINT('',#1012);
#382=VERTEX_POINT('',#1019);
#383=VERTEX_POINT('',#1023);
#384=VERTEX_POINT('',#1047);
#385=VERTEX_POINT('',#1051);
#386=EDGE_CURVE('',#342,#343,#446,.T.);
#387=EDGE_CURVE('',#343,#344,#447,.T.);
#388=EDGE_CURVE('',#345,#344,#208,.T.);
#389=EDGE_CURVE('',#345,#342,#448,.T.);
#390=EDGE_CURVE('',#346,#347,#99,.T.);
#391=EDGE_CURVE('',#346,#348,#449,.T.);
#392=EDGE_CURVE('',#349,#348,#450,.T.);
#393=EDGE_CURVE('',#349,#347,#451,.T.);
#394=EDGE_CURVE('',#350,#351,#100,.T.);
#395=EDGE_CURVE('',#351,#352,#452,.T.);
#396=EDGE_CURVE('',#353,#352,#453,.T.);
#397=EDGE_CURVE('',#353,#350,#454,.T.);
#398=EDGE_CURVE('',#354,#354,#209,.T.);
#399=EDGE_CURVE('',#355,#355,#210,.T.);
#400=EDGE_CURVE('',#356,#356,#211,.T.);
#401=EDGE_CURVE('',#357,#357,#212,.T.);
#402=EDGE_CURVE('',#358,#359,#67,.T.);
#403=EDGE_CURVE('',#359,#346,#213,.T.);
#404=EDGE_CURVE('',#347,#360,#214,.T.);
#405=EDGE_CURVE('',#360,#361,#68,.T.);
#406=EDGE_CURVE('',#361,#362,#215,.T.);
#407=EDGE_CURVE('',#362,#363,#216,.T.);
#408=EDGE_CURVE('',#363,#364,#217,.T.);
#409=EDGE_CURVE('',#364,#365,#69,.T.);
#410=EDGE_CURVE('',#365,#351,#218,.T.);
#411=EDGE_CURVE('',#350,#366,#219,.T.);
#412=EDGE_CURVE('',#366,#367,#70,.T.);
#413=EDGE_CURVE('',#367,#345,#220,.T.);
#414=EDGE_CURVE('',#344,#358,#221,.T.);
#415=EDGE_CURVE('',#368,#368,#71,.T.);
#416=EDGE_CURVE('',#369,#369,#72,.T.);
#417=EDGE_CURVE('',#370,#370,#101,.T.);
#418=EDGE_CURVE('',#371,#371,#102,.T.);
#419=EDGE_CURVE('',#348,#372,#103,.T.);
#420=EDGE_CURVE('',#372,#373,#455,.T.);
#421=EDGE_CURVE('',#373,#343,#104,.T.);
#422=EDGE_CURVE('',#342,#374,#105,.T.);
#423=EDGE_CURVE('',#374,#375,#456,.T.);
#424=EDGE_CURVE('',#375,#353,#106,.T.);
#425=EDGE_CURVE('',#352,#376,#107,.T.);
#426=EDGE_CURVE('',#376,#377,#457,.T.);
#427=EDGE_CURVE('',#377,#378,#108,.T.);
#428=EDGE_CURVE('',#379,#378,#458,.T.);
#429=EDGE_CURVE('',#379,#380,#109,.T.);
#430=EDGE_CURVE('',#380,#381,#459,.T.);
#431=EDGE_CURVE('',#381,#349,#110,.T.);
#432=EDGE_CURVE('',#362,#379,#460,.T.);
#433=EDGE_CURVE('',#378,#363,#461,.T.);
#434=EDGE_CURVE('',#382,#382,#111,.T.);
#435=EDGE_CURVE('',#383,#383,#112,.T.);
#436=EDGE_CURVE('',#366,#375,#462,.T.);
#437=EDGE_CURVE('',#374,#367,#463,.T.);
#438=EDGE_CURVE('',#364,#377,#464,.T.);
#439=EDGE_CURVE('',#376,#365,#465,.T.);
#440=EDGE_CURVE('',#360,#381,#466,.T.);
#441=EDGE_CURVE('',#380,#361,#467,.T.);
#442=EDGE_CURVE('',#372,#359,#468,.T.);
#443=EDGE_CURVE('',#358,#373,#469,.T.);
#444=EDGE_CURVE('',#384,#384,#113,.T.);
#445=EDGE_CURVE('',#385,#385,#114,.T.);
#446=LINE('',#666,#470);
#447=LINE('',#669,#471);
#448=LINE('',#676,#472);
#449=LINE('',#681,#473);
#450=LINE('',#683,#474);
#451=LINE('',#685,#475);
#452=LINE('',#690,#476);
#453=LINE('',#692,#477);
#454=LINE('',#694,#478);
#455=LINE('',#993,#479);
#456=LINE('',#998,#480);
#457=LINE('',#1003,#481);
#458=LINE('',#1007,#482);
#459=LINE('',#1011,#483);
#460=LINE('',#1015,#484);
#461=LINE('',#1016,#485);
#462=LINE('',#1026,#486);
#463=LINE('',#1027,#487);
#464=LINE('',#1029,#488);
#465=LINE('',#1030,#489);
#466=LINE('',#1032,#490);
#467=LINE('',#1033,#491);
#468=LINE('',#1035,#492);
#469=LINE('',#1036,#493);
#470=VECTOR('',#545,1.);
#471=VECTOR('',#546,1.);
#472=VECTOR('',#547,1.);
#473=VECTOR('',#552,1.);
#474=VECTOR('',#553,1.);
#475=VECTOR('',#554,1.);
#476=VECTOR('',#559,1.);
#477=VECTOR('',#560,1.);
#478=VECTOR('',#561,1.);
#479=VECTOR('',#584,1.);
#480=VECTOR('',#589,1.);
#481=VECTOR('',#594,1.);
#482=VECTOR('',#597,1.);
#483=VECTOR('',#600,1.);
#484=VECTOR('',#605,1.);
#485=VECTOR('',#606,1.);
#486=VECTOR('',#621,1.);
#487=VECTOR('',#622,1.);
#488=VECTOR('',#625,1.);
#489=VECTOR('',#626,1.);
#490=VECTOR('',#629,1.);
#491=VECTOR('',#630,1.);
#492=VECTOR('',#633,1.);
#493=VECTOR('',#634,1.);
#494=AXIS2_PLACEMENT_3D('',#665,#543,#544);
#495=AXIS2_PLACEMENT_3D('',#677,#548,#549);
#496=AXIS2_PLACEMENT_3D('',#678,#550,#551);
#497=AXIS2_PLACEMENT_3D('',#686,#555,#556);
#498=AXIS2_PLACEMENT_3D('',#687,#557,#558);
#499=AXIS2_PLACEMENT_3D('',#695,#562,#563);
#500=AXIS2_PLACEMENT_3D('',#932,#564,#565);
#501=AXIS2_PLACEMENT_3D('',#944,#566,#567);
#502=AXIS2_PLACEMENT_3D('',#961,#568,#569);
#503=AXIS2_PLACEMENT_3D('',#972,#570,#571);
#504=AXIS2_PLACEMENT_3D('',#982,#572,#573);
#505=AXIS2_PLACEMENT_3D('',#983,#574,#575);
#506=AXIS2_PLACEMENT_3D('',#985,#576,#577);
#507=AXIS2_PLACEMENT_3D('',#987,#578,#579);
#508=AXIS2_PLACEMENT_3D('',#989,#580,#581);
#509=AXIS2_PLACEMENT_3D('',#991,#582,#583);
#510=AXIS2_PLACEMENT_3D('',#995,#585,#586);
#511=AXIS2_PLACEMENT_3D('',#996,#587,#588);
#512=AXIS2_PLACEMENT_3D('',#1000,#590,#591);
#513=AXIS2_PLACEMENT_3D('',#1001,#592,#593);
#514=AXIS2_PLACEMENT_3D('',#1005,#595,#596);
#515=AXIS2_PLACEMENT_3D('',#1009,#598,#599);
#516=AXIS2_PLACEMENT_3D('',#1013,#601,#602);
#517=AXIS2_PLACEMENT_3D('',#1014,#603,#604);
#518=AXIS2_PLACEMENT_3D('',#1017,#607,#608);
#519=AXIS2_PLACEMENT_3D('',#1018,#609,#610);
#520=AXIS2_PLACEMENT_3D('',#1020,#611,#612);
#521=AXIS2_PLACEMENT_3D('',#1021,#613,#614);
#522=AXIS2_PLACEMENT_3D('',#1022,#615,#616);
#523=AXIS2_PLACEMENT_3D('',#1024,#617,#618);
#524=AXIS2_PLACEMENT_3D('',#1025,#619,#620);
#525=AXIS2_PLACEMENT_3D('',#1028,#623,#624);
#526=AXIS2_PLACEMENT_3D('',#1031,#627,#628);
#527=AXIS2_PLACEMENT_3D('',#1034,#631,#632);
#528=AXIS2_PLACEMENT_3D('',#1037,#635,#636);
#529=AXIS2_PLACEMENT_3D('',#1038,#637,#638);
#530=AXIS2_PLACEMENT_3D('',#1039,#639,#640);
#531=AXIS2_PLACEMENT_3D('',#1040,#641,#642);
#532=AXIS2_PLACEMENT_3D('',#1041,#643,#644);
#533=AXIS2_PLACEMENT_3D('',#1042,#645,#646);
#534=AXIS2_PLACEMENT_3D('',#1043,#647,#648);
#535=AXIS2_PLACEMENT_3D('',#1044,#649,#650);
#536=AXIS2_PLACEMENT_3D('',#1045,#651,#652);
#537=AXIS2_PLACEMENT_3D('',#1046,#653,#654);
#538=AXIS2_PLACEMENT_3D('',#1048,#655,#656);
#539=AXIS2_PLACEMENT_3D('',#1049,#657,#658);
#540=AXIS2_PLACEMENT_3D('',#1050,#659,#660);
#541=AXIS2_PLACEMENT_3D('',#1052,#661,#662);
#542=AXIS2_PLACEMENT_3D('',#1053,#663,#664);
#543=DIRECTION('',(0.,0.,1.));
#544=DIRECTION('',(1.,0.,0.));
#545=DIRECTION('',(1.,0.,-6.30808536718855E-17));
#546=DIRECTION('',(-5.55111512312578E-17,0.707106781186547,0.707106781186548));
#547=DIRECTION('',(-5.55111512312578E-17,-0.707106781186547,-0.707106781186548));
#548=DIRECTION('',(-4.46048993944265E-17,0.707106781186548,-0.707106781186547));
#549=DIRECTION('',(0.,0.707106781186547,0.707106781186548));
#550=DIRECTION('',(-1.,0.,0.));
#551=DIRECTION('',(0.,0.,1.));
#552=DIRECTION('',(0.,-0.707106781186547,-0.707106781186548));
#553=DIRECTION('',(0.,-0.707106781186548,0.707106781186547));
#554=DIRECTION('',(0.,0.707106781186547,0.707106781186548));
#555=DIRECTION('',(-1.,0.,0.));
#556=DIRECTION('',(0.,0.,1.));
#557=DIRECTION('',(-1.,0.,0.));
#558=DIRECTION('',(0.,0.,1.));
#559=DIRECTION('',(0.,-0.707106781186547,-0.707106781186548));
#560=DIRECTION('',(0.,0.707106781186548,-0.707106781186547));
#561=DIRECTION('',(0.,0.707106781186547,0.707106781186548));
#562=DIRECTION('',(-1.,0.,0.));
#563=DIRECTION('',(0.,0.,1.));
#564=DIRECTION('',(-0.70710678118655,0.499999999999999,-0.499999999999998));
#565=DIRECTION('',(0.707106781186545,0.500000000000002,-0.500000000000001));
#566=DIRECTION('',(-0.70710678118655,-0.499999999999999,0.499999999999998));
#567=DIRECTION('',(0.707106781186545,-0.500000000000002,0.500000000000001));
#568=DIRECTION('',(0.70710678118655,-0.499999999999999,0.499999999999998));
#569=DIRECTION('',(0.707106781186545,0.500000000000002,-0.500000000000001));
#570=DIRECTION('',(0.70710678118655,0.499999999999999,-0.499999999999998));
#571=DIRECTION('',(0.707106781186545,-0.500000000000002,0.500000000000001));
#572=DIRECTION('',(1.,0.,0.));
#573=DIRECTION('',(0.,-6.53898070190898E-6,-0.999999999978621));
#574=DIRECTION('',(0.,0.707106781186547,0.707106781186548));
#575=DIRECTION('',(0.224415835435149,-0.689070944390324,0.689070944390323));
#576=DIRECTION('',(0.,0.707106781186547,0.707106781186548));
#577=DIRECTION('',(0.224415835435149,0.689070944390324,-0.689070944390323));
#578=DIRECTION('',(0.,0.707106781186547,0.707106781186548));
#579=DIRECTION('',(0.,-0.707106781186549,0.707106781186547));
#580=DIRECTION('',(0.,0.707106781186547,0.707106781186548));
#581=DIRECTION('',(0.,-0.707106781186549,0.707106781186547));
#582=DIRECTION('',(0.,-0.707106781186547,-0.707106781186548));
#583=DIRECTION('',(0.,-0.707106781186548,0.707106781186547));
#584=DIRECTION('',(-0.707106781186545,-0.500000000000002,0.500000000000001));
#585=DIRECTION('',(0.,-0.707106781186547,-0.707106781186548));
#586=DIRECTION('',(0.,-0.707106781186548,0.707106781186547));
#587=DIRECTION('',(0.,-0.707106781186547,-0.707106781186548));
#588=DIRECTION('',(0.,-0.707106781186548,0.707106781186547));
#589=DIRECTION('',(-0.707106781186545,0.500000000000002,-0.500000000000001));
#590=DIRECTION('',(0.,-0.707106781186547,-0.707106781186548));
#591=DIRECTION('',(0.,-0.707106781186548,0.707106781186547));
#592=DIRECTION('',(0.,-0.707106781186547,-0.707106781186548));
#593=DIRECTION('',(0.,-0.707106781186548,0.707106781186547));
#594=DIRECTION('',(0.707106781186545,0.500000000000002,-0.500000000000001));
#595=DIRECTION('',(0.,-0.707106781186547,-0.707106781186548));
#596=DIRECTION('',(0.,-0.707106781186548,0.707106781186547));
#597=DIRECTION('',(-1.,0.,0.));
#598=DIRECTION('',(0.,-0.707106781186547,-0.707106781186548));
#599=DIRECTION('',(0.,-0.707106781186548,0.707106781186547));
#600=DIRECTION('',(0.707106781186545,-0.500000000000002,0.500000000000001));
#601=DIRECTION('',(0.,-0.707106781186547,-0.707106781186548));
#602=DIRECTION('',(0.,-0.707106781186548,0.707106781186547));
#603=DIRECTION('',(0.,0.707106781186547,0.707106781186548));
#604=DIRECTION('',(0.,-0.707106781186548,0.707106781186547));
#605=DIRECTION('',(-5.55111512312578E-17,-0.707106781186547,-0.707106781186548));
#606=DIRECTION('',(-5.55111512312578E-17,0.707106781186547,0.707106781186548));
#607=DIRECTION('',(0.,-0.707106781186548,0.707106781186547));
#608=DIRECTION('',(0.,-0.707106781186547,-0.707106781186548));
#609=DIRECTION('',(0.,-0.707106781186547,-0.707106781186548));
#610=DIRECTION('',(0.,0.707106781186548,-0.707106781186547));
#611=DIRECTION('',(0.,0.707106781186547,0.707106781186548));
#612=DIRECTION('',(0.,-0.707106781186548,0.707106781186547));
#613=DIRECTION('',(0.,-0.707106781186547,-0.707106781186548));
#614=DIRECTION('',(0.,0.707106781186548,-0.707106781186547));
#615=DIRECTION('',(0.,-0.707106781186547,-0.707106781186548));
#616=DIRECTION('',(0.,0.707106781186548,-0.707106781186547));
#617=DIRECTION('',(0.,0.707106781186547,0.707106781186548));
#618=DIRECTION('',(0.,-0.707106781186548,0.707106781186547));
#619=DIRECTION('',(0.,-0.707106781186547,-0.707106781186548));
#620=DIRECTION('',(0.,0.707106781186548,-0.707106781186547));
#621=DIRECTION('',(1.62588397641636E-17,-0.707106781186547,-0.707106781186548));
#622=DIRECTION('',(1.62588397641633E-17,0.707106781186547,0.707106781186548));
#623=DIRECTION('',(-0.70710678118655,-0.499999999999999,0.499999999999998));
#624=DIRECTION('',(0.,0.707106781186547,0.707106781186548));
#625=DIRECTION('',(1.62588397641633E-17,-0.707106781186547,-0.707106781186548));
#626=DIRECTION('',(1.62588397641636E-17,0.707106781186547,0.707106781186548));
#627=DIRECTION('',(-0.70710678118655,0.499999999999999,-0.499999999999998));
#628=DIRECTION('',(0.,0.707106781186547,0.707106781186548));
#629=DIRECTION('',(5.55111512312581E-17,-0.707106781186547,-0.707106781186548));
#630=DIRECTION('',(1.62588397641633E-17,0.707106781186547,0.707106781186548));
#631=DIRECTION('',(-0.70710678118655,-0.499999999999999,0.499999999999998));
#632=DIRECTION('',(0.,-0.707106781186547,-0.707106781186548));
#633=DIRECTION('',(5.55111512312581E-17,0.707106781186547,0.707106781186548));
#634=DIRECTION('',(1.62588397641633E-17,-0.707106781186547,-0.707106781186548));
#635=DIRECTION('',(-0.70710678118655,0.499999999999999,-0.499999999999998));
#636=DIRECTION('',(0.,-0.707106781186547,-0.707106781186548));
#637=DIRECTION('',(0.,-0.707106781186547,-0.707106781186548));
#638=DIRECTION('',(0.,0.707106781186548,-0.707106781186547));
#639=DIRECTION('',(0.,0.707106781186547,0.707106781186548));
#640=DIRECTION('',(0.,-0.707106781186548,0.707106781186547));
#641=DIRECTION('',(-5.55111512312578E-17,-0.707106781186547,-0.707106781186548));
#642=DIRECTION('',(0.,0.707106781186548,-0.707106781186547));
#643=DIRECTION('',(5.55111512312578E-17,-0.707106781186547,-0.707106781186548));
#644=DIRECTION('',(0.,0.707106781186548,-0.707106781186547));
#645=DIRECTION('',(0.,-0.707106781186547,-0.707106781186548));
#646=DIRECTION('',(0.,0.707106781186548,-0.707106781186547));
#647=DIRECTION('',(0.,0.707106781186547,0.707106781186548));
#648=DIRECTION('',(0.,-0.707106781186548,0.707106781186547));
#649=DIRECTION('',(-5.55111512312578E-17,0.707106781186547,0.707106781186548));
#650=DIRECTION('',(0.,-0.707106781186548,0.707106781186547));
#651=DIRECTION('',(5.55111512312578E-17,0.707106781186547,0.707106781186548));
#652=DIRECTION('',(0.,-0.707106781186548,0.707106781186547));
#653=DIRECTION('',(-0.0399574550236093,0.573118367883832,0.81849785472059));
#654=DIRECTION('',(0.,-0.819152044288992,0.573576436351046));
#655=DIRECTION('',(0.0399574550236196,-0.573118367883832,-0.81849785472059));
#656=DIRECTION('',(0.,0.819152044288992,-0.573576436351046));
#657=DIRECTION('',(-0.0399574550236093,0.573118367883832,0.81849785472059));
#658=DIRECTION('',(0.,0.819152044288992,-0.573576436351045));
#659=DIRECTION('',(-0.0399574550235868,0.81849785472059,0.573118367883835));
#660=DIRECTION('',(0.,-0.573576436351046,0.819152044288991));
#661=DIRECTION('',(0.0399574550236196,-0.818497854720589,-0.573118367883834));
#662=DIRECTION('',(0.,0.573576436351046,-0.819152044288991));
#663=DIRECTION('',(-0.0399574550235868,0.81849785472059,0.573118367883835));
#664=DIRECTION('',(0.,-0.573576436351047,0.819152044288991));
#665=CARTESIAN_POINT('',(0.,0.,0.));
#666=CARTESIAN_POINT('',(-1699.78405242552,31.4052004661136,15.4314032807948));
#667=CARTESIAN_POINT('',(-1681.88455748891,31.4052004661136,15.4314032807948));
#668=CARTESIAN_POINT('',(-1662.68354736213,31.4052004661136,15.4314032807948));
#669=CARTESIAN_POINT('',(-1662.68354736213,36.9202897565268,20.946492571208));
#670=CARTESIAN_POINT('',(-1662.68354736213,36.8356688834191,20.8618716981003));
#671=CARTESIAN_POINT('',(-1681.88455748891,36.2750675191629,20.3012703338441));
#672=CARTESIAN_POINT('',(-1675.48422464199,36.462000767109,20.4882035817902));
#673=CARTESIAN_POINT('',(-1669.08388788807,36.6488671411502,20.6750699558313));
#674=CARTESIAN_POINT('',(-1662.68354736213,36.8356688834191,20.8618716981003));
#675=CARTESIAN_POINT('',(-1681.88455748891,36.2750675191629,20.3012703338441));
#676=CARTESIAN_POINT('',(-1681.88455748891,31.4052004661136,15.4314032807948));
#677=CARTESIAN_POINT('',(-1699.78405242552,39.6900082849403,23.7162110996215));
#678=CARTESIAN_POINT('',(-1644.78405242552,-0.0787417467783373,-41.4099581959654));
#679=CARTESIAN_POINT('',(-1644.78405242552,51.5936935672427,10.3061878829391));
#680=CARTESIAN_POINT('',(-1644.78405242552,51.7356938791546,10.1639169473891));
#681=CARTESIAN_POINT('',(-1644.78405242552,44.0620547156061,2.77454903130241));
#682=CARTESIAN_POINT('',(-1644.78405242552,44.0620547156061,2.77454903130241));
#683=CARTESIAN_POINT('',(-1644.78405242552,25.7483462166213,21.0882575302872));
#684=CARTESIAN_POINT('',(-1644.78405242552,44.204190339337,2.63241340757148));
#685=CARTESIAN_POINT('',(-1644.78405242552,51.6902456975914,10.1184687658259));
#686=CARTESIAN_POINT('',(-1644.78405242552,0.,0.));
#687=CARTESIAN_POINT('',(-1699.78405242552,-0.0787417467783373,-41.4099581959654));
#688=CARTESIAN_POINT('',(-1699.78405242552,50.0384710880458,8.75096540374213));
#689=CARTESIAN_POINT('',(-1699.78405242552,50.1804672028203,8.60869027105478));
#690=CARTESIAN_POINT('',(-1699.78405242552,20.7858884658828,-20.7858884658828));
#691=CARTESIAN_POINT('',(-1699.78405242552,44.204190339337,2.63241340757149));
#692=CARTESIAN_POINT('',(-1699.78405242552,25.7483462166213,21.0882575302872));
#693=CARTESIAN_POINT('',(-1699.78405242552,44.0620547156061,2.77454903130242));
#694=CARTESIAN_POINT('',(-1699.78405242552,20.6437528421519,-20.6437528421518));
#695=CARTESIAN_POINT('',(-1699.78405242552,0.,0.));
#696=CARTESIAN_POINT('',(-1673.82302439723,59.5828352084324,-1.20231619967468));
#697=CARTESIAN_POINT('',(-1673.9518747566,59.4945605837956,-1.08055095419715));
#698=CARTESIAN_POINT('',(-1674.05929591686,59.3946937343012,-0.940929308740296));
#699=CARTESIAN_POINT('',(-1674.13790956154,59.2894754397481,-0.792704463210695));
#700=CARTESIAN_POINT('',(-1674.22616097534,59.1713577352594,-0.626307748870284));
#701=CARTESIAN_POINT('',(-1674.28018716192,59.0433094506498,-0.44460366910742));
#702=CARTESIAN_POINT('',(-1674.29518534536,58.9159232067212,-0.263011350865238));
#703=CARTESIAN_POINT('',(-1674.31003895758,58.7897648705123,-0.0831694461883043));
#704=CARTESIAN_POINT('',(-1674.28703528139,58.6607682334001,0.101529261897275));
#705=CARTESIAN_POINT('',(-1674.22819388841,58.5397311782841,0.275791673305868));
#706=CARTESIAN_POINT('',(-1674.16948409958,58.4189648335998,0.449664330910788));
#707=CARTESIAN_POINT('',(-1674.07353248674,58.3028297764086,0.617908822747909));
#708=CARTESIAN_POINT('',(-1673.94852846431,58.2010046652018,0.76713580247962));
#709=CARTESIAN_POINT('',(-1673.8226388426,58.0984581672468,0.917419990638159));
#710=CARTESIAN_POINT('',(-1673.6639088967,58.0076491471231,1.05252070445979));
#711=CARTESIAN_POINT('',(-1673.48551022675,57.9360996569986,1.16208303070787));
#712=CARTESIAN_POINT('',(-1673.30483373783,57.8636366130505,1.27304426394858));
#713=CARTESIAN_POINT('',(-1673.09910208326,57.8089676610299,1.36085022800857));
#714=CARTESIAN_POINT('',(-1672.88511482022,57.7766327086701,1.41891212417593));
#715=CARTESIAN_POINT('',(-1672.6684392518,57.7438915348128,1.4777034474394));
#716=CARTESIAN_POINT('',(-1672.43738232874,57.7331631998219,1.50761593145039));
#717=CARTESIAN_POINT('',(-1672.21082902033,57.745360884048,1.50638262205401));
#718=CARTESIAN_POINT('',(-1671.98262965768,57.7576471922277,1.50514035187845));
#719=CARTESIAN_POINT('',(-1671.75269534487,57.7935437940501,1.47224725159591));
#720=CARTESIAN_POINT('',(-1671.5401309971,57.8500110714712,1.41015626707273));
#721=CARTESIAN_POINT('',(-1671.32771181478,57.9064397859933,1.3481076860171));
#722=CARTESIAN_POINT('',(-1671.12671776683,57.9849944064594,1.25512878888314));
#723=CARTESIAN_POINT('',(-1670.95429386579,58.0788884221524,1.1384666809776));
#724=CARTESIAN_POINT('',(-1670.78333274133,58.1719858779382,1.02279428852053));
#725=CARTESIAN_POINT('',(-1670.63568163265,58.2827783257228,0.880544761375711));
#726=CARTESIAN_POINT('',(-1670.52426768647,58.4015994728161,0.723244372540698));
#727=CARTESIAN_POINT('',(-1670.41431853905,58.5188584360384,0.56801206785018));
#728=CARTESIAN_POINT('',(-1670.33660161103,58.6472139663564,0.393744101608907));
#729=CARTESIAN_POINT('',(-1670.29800996331,58.7755660642251,0.214937022356903));
#730=CARTESIAN_POINT('',(-1670.25988493026,58.9023662466514,0.0382919137474131));
#731=CARTESIAN_POINT('',(-1670.25888351742,59.0326755736857,-0.1476897673801));
#732=CARTESIAN_POINT('',(-1670.29509384333,59.1555915853648,-0.327455629471871));
#733=CARTESIAN_POINT('',(-1670.33111763287,59.2778743990238,-0.506295433303337));
#734=CARTESIAN_POINT('',(-1670.4049254456,59.39620134617,-0.683881284733129));
#735=CARTESIAN_POINT('',(-1670.51018232892,59.5011772030978,-0.845546164474903));
#736=CARTESIAN_POINT('',(-1670.61589597965,59.6066086079226,-1.00791259691772));
#737=CARTESIAN_POINT('',(-1670.7561633615,59.7014641864751,-1.15863110237374));
#738=CARTESIAN_POINT('',(-1670.91928915898,59.778636307581,-1.28547136956201));
#739=CARTESIAN_POINT('',(-1671.08429520386,59.8566979426855,-1.41377364390543));
#740=CARTESIAN_POINT('',(-1671.27713675652,59.9188146327366,-1.52112655256406));
#741=CARTESIAN_POINT('',(-1671.48204960095,59.9605591682872,-1.59890963082186));
#742=CARTESIAN_POINT('',(-1671.68967306706,60.0028559075979,-1.67772163676367));
#743=CARTESIAN_POINT('',(-1671.91533990294,60.0254106537738,-1.72832244194067));
#744=CARTESIAN_POINT('',(-1672.1406635291,60.0267011873951,-1.74663768507234));
#745=CARTESIAN_POINT('',(-1672.3680951005,60.028003794203,-1.7651242707747));
#746=CARTESIAN_POINT('',(-1672.60143784139,60.0076748538452,-1.75121498323341));
#747=CARTESIAN_POINT('',(-1672.82142427602,59.96725670222,-1.70603853028133));
#748=CARTESIAN_POINT('',(-1673.04184499044,59.9267587602827,-1.6607728935557));
#749=CARTESIAN_POINT('',(-1673.25498562716,59.8649368911937,-1.58283610785323));
#750=CARTESIAN_POINT('',(-1673.44279334958,59.7864529583375,-1.47870693712691));
#751=CARTESIAN_POINT('',(-1673.58305943556,59.7278364438902,-1.40093701890108));
#752=CARTESIAN_POINT('',(-1673.71192631873,59.6589478496793,-1.30730531159115));
#753=CARTESIAN_POINT('',(-1673.82302439723,59.5828352084324,-1.20231619967468));
#754=CARTESIAN_POINT('',(-1673.82302439723,59.5828352084324,-1.20231619967468));
#755=CARTESIAN_POINT('',(-1673.82302439722,40.1289002495093,18.2516187592475));
#756=CARTESIAN_POINT('',(-1673.6941981094,40.0071577519539,18.3398768926082));
#757=CARTESIAN_POINT('',(-1673.54117720909,39.9006073720763,18.4184884335071));
#758=CARTESIAN_POINT('',(-1673.37405999947,39.8160993751861,18.4828093707014));
#759=CARTESIAN_POINT('',(-1673.18428551633,39.7201340256688,18.5558507566801));
#760=CARTESIAN_POINT('',(-1672.97135261247,39.6502738029389,18.6122709689407));
#761=CARTESIAN_POINT('',(-1672.7526540327,39.6121230190003,18.6479668470651));
#762=CARTESIAN_POINT('',(-1672.5315362773,39.5735502229636,18.6840575818836));
#763=CARTESIAN_POINT('',(-1672.29847008861,39.5663413319931,18.699960834523));
#764=CARTESIAN_POINT('',(-1672.07254642554,39.5910743240829,18.6944616479495));
#765=CARTESIAN_POINT('',(-1671.8453145412,39.6159505336916,18.6889306180853));
#766=CARTESIAN_POINT('',(-1671.61901714235,39.6738456691788,18.6615783168265));
#767=CARTESIAN_POINT('',(-1671.41254678885,39.7599853133587,18.6143162582271));
#768=CARTESIAN_POINT('',(-1671.20656409255,39.8459215064511,18.5671658267107));
#769=CARTESIAN_POINT('',(-1671.01456671168,39.962393316898,18.498842867571));
#770=CARTESIAN_POINT('',(-1670.85302555236,40.0995949961599,18.4144792693629));
#771=CARTESIAN_POINT('',(-1670.69306368153,40.2354553390409,18.3309404421351));
#772=CARTESIAN_POINT('',(-1670.55849743283,40.3954719910432,18.229284782829));
#773=CARTESIAN_POINT('',(-1670.46115625916,40.5659753928188,18.1175804658454));
#774=CARTESIAN_POINT('',(-1670.3651243149,40.7341855402753,18.0073785611581));
#775=CARTESIAN_POINT('',(-1670.30265489131,40.9173082674587,17.8842883017008));
#776=CARTESIAN_POINT('',(-1670.27928945688,41.0997434561539,17.7584602196887));
#777=CARTESIAN_POINT('',(-1670.25618347975,41.2801528258397,17.6340293731675));
#778=CARTESIAN_POINT('',(-1670.27066830861,41.464880580449,17.5034741377047));
#779=CARTESIAN_POINT('',(-1670.32147444104,41.6385759695602,17.3777239443644));
#780=CARTESIAN_POINT('',(-1670.37211365126,41.8117006870887,17.252386899941));
#781=CARTESIAN_POINT('',(-1670.46018431352,41.9786117073156,17.1284037256587));
#782=CARTESIAN_POINT('',(-1670.57817249534,42.1259841066434,17.0161271163187));
#783=CARTESIAN_POINT('',(-1670.69688270248,42.2742583471897,16.9031634334518));
#784=CARTESIAN_POINT('',(-1670.84906012545,42.4068064584269,16.7989927014689));
#785=CARTESIAN_POINT('',(-1671.02208063414,42.5134725851833,16.7122494117392));
#786=CARTESIAN_POINT('',(-1671.19723947497,42.6214569811371,16.6244340758931));
#787=CARTESIAN_POINT('',(-1671.39848865445,42.705875180763,16.5521047944968));
#788=CARTESIAN_POINT('',(-1671.60941100848,42.7604451866277,16.5012456013232));
#789=CARTESIAN_POINT('',(-1671.82304350187,42.8157163619885,16.4497329188511));
#790=CARTESIAN_POINT('',(-1672.05242662025,42.8418899399685,16.4188482325222));
#791=CARTESIAN_POINT('',(-1672.27884399384,42.8370581629414,16.4111587343543));
#792=CARTESIAN_POINT('',(-1672.50708703285,42.83218742597,16.4034072336523));
#793=CARTESIAN_POINT('',(-1672.73861366303,42.7956618342573,16.4190231140426));
#794=CARTESIAN_POINT('',(-1672.95422254091,42.7302817474563,16.4566655200352));
#795=CARTESIAN_POINT('',(-1673.16989577965,42.6648821442107,16.4943191625673));
#796=CARTESIAN_POINT('',(-1673.37564780555,42.5687493842178,16.5550716443763));
#797=CARTESIAN_POINT('',(-1673.55394838971,42.4494130739782,16.6336693387086));
#798=CARTESIAN_POINT('',(-1673.73087884537,42.3309937886711,16.7116630589009));
#799=CARTESIAN_POINT('',(-1673.88572108456,42.1863561322048,16.8094214413719));
#800=CARTESIAN_POINT('',(-1674.00490892669,42.0272203879818,16.9184196379571));
#801=CARTESIAN_POINT('',(-1674.12255939937,41.8701372896259,17.0260118983788));
#802=CARTESIAN_POINT('',(-1674.20874240265,41.6944927780872,17.1475670689649));
#803=CARTESIAN_POINT('',(-1674.25578692481,41.5148923110385,17.2725603215189));
#804=CARTESIAN_POINT('',(-1674.30223941464,41.3375520281465,17.3959805950392));
#805=CARTESIAN_POINT('',(-1674.31182188858,41.1514200183177,17.5261753091019));
#806=CARTESIAN_POINT('',(-1674.28368594533,40.9720713930377,17.6522007548297));
#807=CARTESIAN_POINT('',(-1674.25572362353,40.7938294933374,17.777448521976));
#808=CARTESIAN_POINT('',(-1674.18977056168,40.6173982712608,17.9020213259082));
#809=CARTESIAN_POINT('',(-1674.09152842894,40.457366278293,18.0159393403154));
#810=CARTESIAN_POINT('',(-1674.01916829106,40.3394948848827,18.0998455320943));
#811=CARTESIAN_POINT('',(-1673.92827486832,40.2283632972779,18.1795122794998));
#812=CARTESIAN_POINT('',(-1673.82302439722,40.1289002495093,18.2516187592475));
#813=CARTESIAN_POINT('',(-1673.82302439722,40.1289002495093,18.2516187592475));
#814=CARTESIAN_POINT('',(-1650.27115412507,52.7631843813227,8.79259447292587));
#815=CARTESIAN_POINT('',(-1650.47216479074,52.6737023575617,8.8751104472743));
#816=CARTESIAN_POINT('',(-1650.65498288467,52.5594468679885,8.98430858364113));
#817=CARTESIAN_POINT('',(-1650.80444974608,52.4294846246591,9.11076284003662));
#818=CARTESIAN_POINT('',(-1650.95391646135,52.2995225084087,9.23721697278325));
#819=CARTESIAN_POINT('',(-1651.07415439181,52.1502514345125,9.38439535780626));
#820=CARTESIAN_POINT('',(-1651.15520081589,51.9936915126731,9.5397709232539));
#821=CARTESIAN_POINT('',(-1651.23625029022,51.8371256985764,9.69515233638465));
#822=CARTESIAN_POINT('',(-1651.28034112564,51.6689404574355,9.86300430152847));
#823=CARTESIAN_POINT('',(-1651.28382203665,51.5029195209895,10.0292877550039));
#824=CARTESIAN_POINT('',(-1651.28730324913,51.3368842054352,10.1955856103243));
#825=CARTESIAN_POINT('',(-1651.25026336524,51.1684336564054,10.3649007086506));
#826=CARTESIAN_POINT('',(-1651.17577099183,51.0116365323945,10.5233316707172));
#827=CARTESIAN_POINT('',(-1651.10127738571,50.854836813686,10.6817652545183));
#828=CARTESIAN_POINT('',(-1650.98727476114,50.7053775277557,10.8336956487312));
#829=CARTESIAN_POINT('',(-1650.84321163565,50.5759648315137,10.9668677912428));
#830=CARTESIAN_POINT('',(-1650.69915543998,50.4465583603682,11.1000335278186));
#831=CARTESIAN_POINT('',(-1650.52106825281,50.3336462685854,11.218133615787));
#832=CARTESIAN_POINT('',(-1650.32371722391,50.2469662893035,11.3117845008099));
#833=CARTESIAN_POINT('',(-1650.12637432171,50.1602898794125,11.4054315293874));
#834=CARTESIAN_POINT('',(-1649.90433044591,50.0974706983538,11.4772307140678));
#835=CARTESIAN_POINT('',(-1649.67598649708,50.0639711594493,11.5215433416972));
#836=CARTESIAN_POINT('',(-1649.44758076194,50.0304625560912,11.5658679596336));
#837=CARTESIAN_POINT('',(-1649.20658132158,50.025371772212,11.5839235942013));
#838=CARTESIAN_POINT('',(-1648.97291683033,50.0491406292959,11.5742994026356));
#839=CARTESIAN_POINT('',(-1648.73905418619,50.0729296429206,11.5646670495327));
#840=CARTESIAN_POINT('',(-1648.50609576002,50.1262754549868,11.5270418284009));
#841=CARTESIAN_POINT('',(-1648.29327699345,50.2045540546916,11.4643435896479));
#842=CARTESIAN_POINT('',(-1648.08024817111,50.282909916712,11.4015834666618));
#843=CARTESIAN_POINT('',(-1647.88152110626,50.3883960600481,11.3119538468695));
#844=CARTESIAN_POINT('',(-1647.71354682656,50.5119311203056,11.2024847483158));
#845=CARTESIAN_POINT('',(-1647.54556820497,50.6354693737509,11.0930128201573));
#846=CARTESIAN_POINT('',(-1647.40370549128,50.7804577792335,10.9606508465303));
#847=CARTESIAN_POINT('',(-1647.29977734992,50.9345123365464,10.8159831057122));
#848=CARTESIAN_POINT('',(-1647.19600445568,51.0883367682669,10.6715314685274));
#849=CARTESIAN_POINT('',(-1647.12719010581,51.2554412219061,10.5107985147612));
#850=CARTESIAN_POINT('',(-1647.09909512702,51.4217286259026,10.3469198514233));
#851=CARTESIAN_POINT('',(-1647.07105675107,51.5876810113326,10.1833713537719));
#852=CARTESIAN_POINT('',(-1647.0827992358,51.7573953366862,10.0121717092265));
#853=CARTESIAN_POINT('',(-1647.13333793852,51.9168371997259,9.84755522257336));
#854=CARTESIAN_POINT('',(-1647.18383989308,52.0761631279635,9.68305843334127));
#855=CARTESIAN_POINT('',(-1647.27446332377,52.2296277139451,9.52061335351266));
#856=CARTESIAN_POINT('',(-1647.39767598009,52.3648497608741,9.37388901389117));
#857=CARTESIAN_POINT('',(-1647.52104501918,52.5002434330121,9.22697845023298));
#858=CARTESIAN_POINT('',(-1647.68047302954,52.621093238118,9.09180060604101));
#859=CARTESIAN_POINT('',(-1647.86278911779,52.7178569066065,8.97985545697646));
#860=CARTESIAN_POINT('',(-1648.04548492984,52.8148221122585,8.86767715110663));
#861=CARTESIAN_POINT('',(-1648.25619724325,52.8902907027277,8.77575606070653));
#862=CARTESIAN_POINT('',(-1648.47753073849,52.9383744642652,8.71201110863307));
#863=CARTESIAN_POINT('',(-1648.69911076386,52.9865117834238,8.64819515487653));
#864=CARTESIAN_POINT('',(-1648.93745350807,53.0085397489866,8.61087317619243));
#865=CARTESIAN_POINT('',(-1649.17281796319,53.0027453163623,8.60329802582443));
#866=CARTESIAN_POINT('',(-1649.40807936973,52.9969534206891,8.59572619205145));
#867=CARTESIAN_POINT('',(-1649.64686281939,52.963199630899,8.61767081098728));
#868=CARTESIAN_POINT('',(-1649.86933681975,52.9041292183459,8.66721688704672));
#869=CARTESIAN_POINT('',(-1650.00914436709,52.8670080739123,8.69835272927351));
#870=CARTESIAN_POINT('',(-1650.14458596921,52.8195275345166,8.74063755478474));
#871=CARTESIAN_POINT('',(-1650.27115412507,52.7631843813227,8.79259447292587));
#872=CARTESIAN_POINT('',(-1650.27115412507,52.7631843813227,8.79259447292587));
#873=CARTESIAN_POINT('',(-1697.48402165017,50.166525080811,8.75296205195151));
#874=CARTESIAN_POINT('',(-1697.48274927165,50.0005131653162,8.91931850632166));
#875=CARTESIAN_POINT('',(-1697.44088550453,49.8326441894537,9.08809024573965));
#876=CARTESIAN_POINT('',(-1697.36189848813,49.6769574395023,9.24543932287187));
#877=CARTESIAN_POINT('',(-1697.28291136216,49.5212704735666,9.40278861829451));
#878=CARTESIAN_POINT('',(-1697.16462165005,49.3734840349624,9.55306750299014));
#879=CARTESIAN_POINT('',(-1697.0168331163,49.2461830110202,9.6841750801861));
#880=CARTESIAN_POINT('',(-1696.86905128673,49.118887761874,9.81527670990816));
#881=CARTESIAN_POINT('',(-1696.68769715654,49.0085847075796,9.93084327020853));
#882=CARTESIAN_POINT('',(-1696.48780919339,48.9248036169421,10.0217097544829));
#883=CARTESIAN_POINT('',(-1696.28793112998,48.8410266756785,10.1125717384694));
#884=CARTESIAN_POINT('',(-1696.06401267395,48.7814763499033,10.1812587917739));
#885=CARTESIAN_POINT('',(-1695.83460922155,48.7513390705199,10.2223868439113));
#886=CARTESIAN_POINT('',(-1695.60514059148,48.7211932285912,10.2635265812709));
#887=CARTESIAN_POINT('',(-1695.36386457994,48.7196514440505,10.2782360098216));
#888=CARTESIAN_POINT('',(-1695.13072963821,48.7468466987787,10.2653667043192));
#889=CARTESIAN_POINT('',(-1694.89738840434,48.7740660175412,10.2524860112637));
#890=CARTESIAN_POINT('',(-1694.66577365281,48.8308150910283,10.2116213261527));
#891=CARTESIAN_POINT('',(-1694.45500816394,48.9121709924085,10.1459398142733));
#892=CARTESIAN_POINT('',(-1694.24403274081,48.9936079288347,10.0801928799199));
#893=CARTESIAN_POINT('',(-1694.04812667462,49.1019336221627,9.9877489828846));
#894=CARTESIAN_POINT('',(-1693.88351096752,49.2278173348445,9.87585518049));
#895=CARTESIAN_POINT('',(-1693.71890175738,49.3536960792156,9.76396579425991));
#896=CARTESIAN_POINT('',(-1693.58103499782,49.5005965000959,9.62951065537907));
#897=CARTESIAN_POINT('',(-1693.48140192831,49.6559691798181,9.48324559819261));
#898=CARTESIAN_POINT('',(-1693.3819272676,49.8110948291219,9.33721309101651));
#899=CARTESIAN_POINT('',(-1693.31782088995,49.9789426819351,9.17535244576317));
#900=CARTESIAN_POINT('',(-1693.29445120196,50.1453605772343,9.01090303057509));
#901=CARTESIAN_POINT('',(-1693.27112900007,50.3114403192719,8.84678776879048));
#902=CARTESIAN_POINT('',(-1693.28773313177,50.4806750899928,8.67556190202824));
#903=CARTESIAN_POINT('',(-1693.34287234191,50.6390909080547,8.51147558005179));
#904=CARTESIAN_POINT('',(-1693.39797720756,50.7974080538607,8.34749146231071));
#905=CARTESIAN_POINT('',(-1693.49307686949,50.94928858703,8.18613163524035));
#906=CARTESIAN_POINT('',(-1693.62027034809,51.0825059108451,8.0409881910806));
#907=CARTESIAN_POINT('',(-1693.74764210078,51.2159099517535,7.89564131420483));
#908=CARTESIAN_POINT('',(-1693.91069498471,51.3342894382461,7.7625721306988));
#909=CARTESIAN_POINT('',(-1694.09596275594,51.428318477853,7.65311753377596));
#910=CARTESIAN_POINT('',(-1694.28162198593,51.5225461947148,7.54343166639732));
#911=CARTESIAN_POINT('',(-1694.49470575534,51.5949352786223,7.45445686302913));
#912=CARTESIAN_POINT('',(-1694.71762178133,51.6398485057894,7.39387263080955));
#913=CARTESIAN_POINT('',(-1694.94076555648,51.6848076199671,7.33322650080436));
#914=CARTESIAN_POINT('',(-1695.17992352782,51.7034830663687,7.29937133530214));
#915=CARTESIAN_POINT('',(-1695.415281771,51.6944251937696,7.2952638140801));
#916=CARTESIAN_POINT('',(-1695.65051095888,51.6853722879245,7.29115854515816));
#917=CARTESIAN_POINT('',(-1695.88844146315,51.6483618466843,7.31665885273583));
#918=CARTESIAN_POINT('',(-1696.10930977664,51.5862909967514,7.36953585012224));
#919=CARTESIAN_POINT('',(-1696.32992520786,51.524291214585,7.42235230620622));
#920=CARTESIAN_POINT('',(-1696.53960680744,51.4355635343508,7.50392895988114));
#921=CARTESIAN_POINT('',(-1696.72094300734,51.3271027068367,7.60716728133617));
#922=CARTESIAN_POINT('',(-1696.90215374511,51.2187169207393,7.7103341746997));
#923=CARTESIAN_POINT('',(-1697.06005786446,51.0876171550133,7.83795855575955));
#924=CARTESIAN_POINT('',(-1697.18156428441,50.9442599128031,7.97907237157393));
#925=CARTESIAN_POINT('',(-1697.30306004086,50.8009152517449,8.12017380312135));
#926=CARTESIAN_POINT('',(-1697.39151609821,50.6413452823075,8.2786358800326));
#927=CARTESIAN_POINT('',(-1697.43960612338,50.478485900144,8.4410633893837));
#928=CARTESIAN_POINT('',(-1697.46985110728,50.3760596823674,8.54321799186775));
#929=CARTESIAN_POINT('',(-1697.48482175297,50.2709174433085,8.64835303496224));
#930=CARTESIAN_POINT('',(-1697.48402165017,50.166525080811,8.75296205195151));
#931=CARTESIAN_POINT('',(-1697.48402165017,50.166525080811,8.75296205195151));
#932=CARTESIAN_POINT('',(-1638.92077767511,1.99511167506332,-43.4838116178071));
#933=CARTESIAN_POINT('',(-1657.73379989383,38.7770855553235,19.903793433393));
#934=CARTESIAN_POINT('',(-1646.83430495721,47.9154795866116,13.6279739023079));
#935=CARTESIAN_POINT('',(-1646.83430495721,47.9154795866116,13.6279739023079));
#936=CARTESIAN_POINT('',(-1645.52977347619,48.9379587616481,12.8055669643311));
#937=CARTESIAN_POINT('',(-1644.78405242552,50.2845971821888,11.6141778126858));
#938=CARTESIAN_POINT('',(-1644.78405242552,51.5936935672427,10.3061878829391));
#939=CARTESIAN_POINT('',(-1644.78405242552,51.7356938791546,10.1639169473891));
#940=CARTESIAN_POINT('',(-1644.78405242552,53.041166698582,8.85235489827788));
#941=CARTESIAN_POINT('',(-1645.52992123889,54.2302538851054,7.50315409832622));
#942=CARTESIAN_POINT('',(-1646.83430495721,55.050791998137,6.47901506637142));
#943=CARTESIAN_POINT('',(-1646.83430495721,55.0507919981369,6.47901506637144));
#944=CARTESIAN_POINT('',(-1638.78136095641,-2.15275281697581,-39.335947125768));
#945=CARTESIAN_POINT('',(-1657.73379989383,61.3112663651066,-2.67472412903204));
#946=CARTESIAN_POINT('',(-1657.73379989383,61.3112663651066,-2.67472412903203));
#947=CARTESIAN_POINT('',(-1659.0291503495,61.9824161391718,-3.83547653740834));
#948=CARTESIAN_POINT('',(-1660.81973437477,62.3206715151951,-4.56481391555519));
#949=CARTESIAN_POINT('',(-1662.68354736213,62.2662461317547,-4.61923929899557));
#950=CARTESIAN_POINT('',(-1662.68354736213,62.2662461317547,-4.61923929899557));
#951=CARTESIAN_POINT('',(-1662.68354736213,62.2662461317547,-4.61923929899557));
#952=CARTESIAN_POINT('',(-1669.08388795552,62.0793491666051,-4.80613626414523));
#953=CARTESIAN_POINT('',(-1675.4842247103,61.8923864620189,-4.99309896873142));
#954=CARTESIAN_POINT('',(-1681.88455748891,61.7053557350506,-5.18012969569968));
#955=CARTESIAN_POINT('',(-1681.88455748891,61.7053557350506,-5.18012969569968));
#956=CARTESIAN_POINT('',(-1681.88455748891,61.7053557350506,-5.18012969569972));
#957=CARTESIAN_POINT('',(-1683.73595058367,61.6512542674559,-5.2342311632944));
#958=CARTESIAN_POINT('',(-1685.53599225183,61.2116796338516,-4.61040229644101));
#959=CARTESIAN_POINT('',(-1686.83430495721,60.4672452315357,-3.51874526260302));
#960=CARTESIAN_POINT('',(-1686.83430495721,60.4672452315357,-3.51874526260296));
#961=CARTESIAN_POINT('',(-1700.01848215563,1.92602417432991,-43.4147241170736));
#962=CARTESIAN_POINT('',(-1697.73379989383,53.6078659874122,5.03608905564674));
#963=CARTESIAN_POINT('',(-1697.73379989383,53.6078659874122,5.03608905564676));
#964=CARTESIAN_POINT('',(-1699.04043299588,52.7137020515978,5.9897833737974));
#965=CARTESIAN_POINT('',(-1699.78405242552,51.484322180172,7.29856451286081));
#966=CARTESIAN_POINT('',(-1699.78405242552,50.1804672028203,8.60869027105478));
#967=CARTESIAN_POINT('',(-1699.78405242552,50.0384710880458,8.75096540374213));
#968=CARTESIAN_POINT('',(-1699.78405242552,48.7309693832395,10.0573277375899));
#969=CARTESIAN_POINT('',(-1699.04040381332,47.4246029939077,11.289280326));
#970=CARTESIAN_POINT('',(-1697.73379989383,46.4727501956501,12.1852445113465));
#971=CARTESIAN_POINT('',(-1697.73379989383,46.4727501956502,12.1852445113464));
#972=CARTESIAN_POINT('',(-1699.87906543693,-2.08366531624241,-39.4050346265014));
#973=CARTESIAN_POINT('',(-1686.83430495721,37.9334444017276,19.060152279797));
#974=CARTESIAN_POINT('',(-1686.83430495721,37.9334444017275,19.0601522797971));
#975=CARTESIAN_POINT('',(-1685.53562762518,36.843395837593,19.8067108117758));
#976=CARTESIAN_POINT('',(-1683.73630789832,36.2209838134096,20.2471866280907));
#977=CARTESIAN_POINT('',(-1681.88455748891,36.2750675191629,20.3012703338441));
#978=CARTESIAN_POINT('',(-1662.68354736213,36.8356688834191,20.8618716981003));
#979=CARTESIAN_POINT('',(-1660.82063591111,36.8900402255896,20.9162430402708));
#980=CARTESIAN_POINT('',(-1659.02893868574,37.6184308531272,20.5767415758819));
#981=CARTESIAN_POINT('',(-1657.73379989383,38.7770855553235,19.9037934333931));
#982=CARTESIAN_POINT('',(-1489.91231596665,-0.0787417467783373,-41.4099581959654));
#983=CARTESIAN_POINT('',(-1671.9406167934,51.870977157925,-5.03437341101655));
#984=CARTESIAN_POINT('',(-1671.58142238127,50.7680673195767,-3.93146357266819));
#985=CARTESIAN_POINT('',(-1671.9406167934,36.2968430381704,10.539760708738));
#986=CARTESIAN_POINT('',(-1671.58142238127,37.3997528765188,9.43685087038968));
#987=CARTESIAN_POINT('',(-1649.18405242552,44.1331225274715,2.70348121943697));
#988=CARTESIAN_POINT('',(-1649.18405242552,42.2592895573272,4.57731418958131));
#989=CARTESIAN_POINT('',(-1695.38405242552,44.1331225274715,2.70348121943697));
#990=CARTESIAN_POINT('',(-1695.38405242552,42.2592895573272,4.57731418958131));
#991=CARTESIAN_POINT('',(-1651.78405242552,44.0620547156061,2.77454903130241));
#992=CARTESIAN_POINT('',(-1646.83430495721,40.5620547156061,6.2745490313024));
#993=CARTESIAN_POINT('',(-1644.78405242552,42.0118021839119,4.8248015629966));
#994=CARTESIAN_POINT('',(-1657.73379989383,32.8549479344195,13.981655812489));
#995=CARTESIAN_POINT('',(-1662.68354736213,36.3549479344195,10.481655812489));
#996=CARTESIAN_POINT('',(-1681.88455748891,36.3549479344195,10.481655812489));
#997=CARTESIAN_POINT('',(-1686.83430495721,32.8549479344195,13.981655812489));
#998=CARTESIAN_POINT('',(-1684.78405242552,31.4052004661137,15.4314032807948));
#999=CARTESIAN_POINT('',(-1697.73379989383,40.5620547156061,6.27454903130239));
#1000=CARTESIAN_POINT('',(-1692.78405242552,44.0620547156061,2.77454903130241));
#1001=CARTESIAN_POINT('',(-1692.78405242552,44.204190339337,2.63241340757149));
#1002=CARTESIAN_POINT('',(-1697.73379989383,47.704190339337,-0.867586592428485));
#1003=CARTESIAN_POINT('',(-1699.78405242552,46.2544428710312,0.582160875877306));
#1004=CARTESIAN_POINT('',(-1686.83430495721,55.4112971205236,-8.57469337361509));
#1005=CARTESIAN_POINT('',(-1681.88455748891,51.9112971205236,-5.07469337361507));
#1006=CARTESIAN_POINT('',(-1681.88455748891,56.8610445888294,-10.0244408419209));
#1007=CARTESIAN_POINT('',(-1644.78405242552,56.8610445888294,-10.0244408419209));
#1008=CARTESIAN_POINT('',(-1662.68354736213,56.8610445888294,-10.0244408419209));
#1009=CARTESIAN_POINT('',(-1662.68354736213,51.9112971205236,-5.07469337361507));
#1010=CARTESIAN_POINT('',(-1657.73379989383,55.4112971205236,-8.5746933736151));
#1011=CARTESIAN_POINT('',(-1659.78405242552,56.8610445888294,-10.0244408419209));
#1012=CARTESIAN_POINT('',(-1646.83430495721,47.704190339337,-0.867586592428493));
#1013=CARTESIAN_POINT('',(-1651.78405242552,44.204190339337,2.63241340757149));
#1014=CARTESIAN_POINT('',(53300.2159475745,25.7483462166213,21.0882575302872));
#1015=CARTESIAN_POINT('',(-1662.68354736213,56.8610445888294,-10.0244408419209));
#1016=CARTESIAN_POINT('',(-1681.88455748891,61.6206219322434,-5.26486349850687));
#1017=CARTESIAN_POINT('',(-1644.78405242552,65.1458524076561,-1.73963302309424));
#1018=CARTESIAN_POINT('',(-1695.38405242552,44.5220312571241,3.09238994908956));
#1019=CARTESIAN_POINT('',(-1695.38405242552,46.0069554976158,1.60746570859781));
#1020=CARTESIAN_POINT('',(-1695.38405242552,44.1331225274715,2.70348121943696));
#1021=CARTESIAN_POINT('',(-1695.38405242552,46.0069554976158,4.57731418958131));
#1022=CARTESIAN_POINT('',(-1649.18405242552,44.5220312571241,3.09238994908956));
#1023=CARTESIAN_POINT('',(-1649.18405242552,46.0069554976158,1.60746570859781));
#1024=CARTESIAN_POINT('',(-1649.18405242552,44.1331225274715,2.70348121943696));
#1025=CARTESIAN_POINT('',(-1649.18405242552,46.0069554976158,4.57731418958131));
#1026=CARTESIAN_POINT('',(-1697.73379989383,48.8468625344327,14.559356850129));
#1027=CARTESIAN_POINT('',(-1686.83430495721,37.6401254246244,18.7668333026939));
#1028=CARTESIAN_POINT('',(-1684.78405242552,39.6900082849403,23.7162110996215));
#1029=CARTESIAN_POINT('',(-1686.83430495721,55.4112971205236,-8.5746933736151));
#1030=CARTESIAN_POINT('',(-1697.73379989383,24.2858884658828,-24.2858884658827));
#1031=CARTESIAN_POINT('',(-1699.78405242552,22.836140997577,-22.8361409975769));
#1032=CARTESIAN_POINT('',(-1646.83430495721,47.704190339337,-0.867586592428481));
#1033=CARTESIAN_POINT('',(-1657.73379989383,60.9011625979362,-3.0848278962024));
#1034=CARTESIAN_POINT('',(-1659.78405242552,65.1458524076561,-1.73963302309424));
#1035=CARTESIAN_POINT('',(-1646.83430495721,48.0521524303176,13.7646467460139));
#1036=CARTESIAN_POINT('',(-1657.73379989383,32.8549479344195,13.981655812489));
#1037=CARTESIAN_POINT('',(-1644.78405242552,18.5935003104577,-18.5935003104576));
#1038=CARTESIAN_POINT('',(-1651.78405242552,20.6437528421519,-20.6437528421518));
#1039=CARTESIAN_POINT('',(-1651.78405242552,20.7858884658828,-20.7858884658828));
#1040=CARTESIAN_POINT('',(-1662.68354736213,60.1961049393502,3.21011444521158));
#1041=CARTESIAN_POINT('',(-1681.88455748891,60.1961049393502,3.21011444521158));
#1042=CARTESIAN_POINT('',(-1692.78405242552,20.7858884658828,-20.7858884658828));
#1043=CARTESIAN_POINT('',(-1692.78405242552,20.6437528421519,-20.6437528421518));
#1044=CARTESIAN_POINT('',(-1662.68354736213,44.6397557532461,18.7664636313156));
#1045=CARTESIAN_POINT('',(-1681.88455748891,44.6397557532461,18.7664636313156));
#1046=CARTESIAN_POINT('',(-1672.26638271259,40.9693736538064,17.2128259939001));
#1047=CARTESIAN_POINT('',(-1672.26638271259,39.6792091840513,18.116208881153));
#1048=CARTESIAN_POINT('',(-1672.28405242552,41.2228141451414,17.5747765264279));
#1049=CARTESIAN_POINT('',(-1672.20344972093,40.0667122243894,15.9236918727152));
#1050=CARTESIAN_POINT('',(-1672.26638271259,58.5440424430871,-0.361842795380537));
#1051=CARTESIAN_POINT('',(-1672.26638271259,57.6406595558342,0.928321674374623));
#1052=CARTESIAN_POINT('',(-1672.28405242552,58.9059929756149,-0.108402304045546));
#1053=CARTESIAN_POINT('',(-1672.20344972093,57.2549083219022,-1.26450422479758));
#1054=MECHANICAL_DESIGN_GEOMETRIC_PRESENTATION_REPRESENTATION('',(#34,#31),
#1055);
#1055=(
GEOMETRIC_REPRESENTATION_CONTEXT(3)
GLOBAL_UNCERTAINTY_ASSIGNED_CONTEXT((#1056))
GLOBAL_UNIT_ASSIGNED_CONTEXT((#1062,#1058,#1057))
REPRESENTATION_CONTEXT('ROLE BAGLANTI PARCA_AA',
'TOP_LEVEL_ASSEMBLY_PART')
);
#1056=UNCERTAINTY_MEASURE_WITH_UNIT(LENGTH_MEASURE(0.0508),#1062,
'DISTANCE_ACCURACY_VALUE','Maximum Tolerance applied to model');
#1057=(
NAMED_UNIT(*)
SI_UNIT($,.STERADIAN.)
SOLID_ANGLE_UNIT()
);
#1058=(
CONVERSION_BASED_UNIT('DEGREE',#1060)
NAMED_UNIT(#1059)
PLANE_ANGLE_UNIT()
);
#1059=DIMENSIONAL_EXPONENTS(0.,0.,0.,0.,0.,0.,0.);
#1060=PLANE_ANGLE_MEASURE_WITH_UNIT(PLANE_ANGLE_MEASURE(0.0174532925),#1061);
#1061=(
NAMED_UNIT(*)
PLANE_ANGLE_UNIT()
SI_UNIT($,.RADIAN.)
);
#1062=(
LENGTH_UNIT()
NAMED_UNIT(*)
SI_UNIT(.MILLI.,.METRE.)
);
ENDSEC;
END-ISO-10303-21;
